<?xml version="1.0" standalone="no"?>
<!DOCTYPE svg PUBLIC "-//W3C//DTD SVG 20010904//EN"
 "http://www.w3.org/TR/2001/REC-SVG-20010904/DTD/svg10.dtd">
<svg version="1.0" xmlns="http://www.w3.org/2000/svg"
 width="320.000000pt" height="320.000000pt" viewBox="0 0 320.000000 320.000000"
 preserveAspectRatio="xMidYMid meet">
<metadata>
Created by potrace 1.11, written by Peter Selinger 2001-2013
</metadata>
<g transform="translate(0.000000,320.000000) scale(0.100000,-0.100000)"
fill="#000000" stroke="none">
<path d="M1378 2575 c-2 -1 -34 -5 -73 -9 -425 -39 -821 -343 -981 -751 -15
-38 -29 -72 -31 -74 -1 -2 -31 -5 -66 -5 l-62 -1 0 -45 0 -45 48 0 c26 0 47
-4 47 -8 0 -4 0 -20 0 -37 0 -29 0 -29 -67 -32 l-67 -3 -1 -42 c0 -24 4 -44
10 -44 5 -1 31 -1 57 -1 l48 0 1 -107 c0 -58 2 -119 5 -136 19 -142 59 -275
116 -390 46 -94 74 -130 57 -75 -14 48 -19 281 -8 360 54 381 276 704 614 894
106 60 117 59 24 -3 -41 -26 -83 -57 -95 -67 -12 -11 -36 -33 -55 -49 -107
-96 -213 -239 -278 -376 -40 -85 -86 -226 -95 -289 -3 -19 -8 -48 -11 -65 -19
-107 -8 -301 26 -445 l21 -90 64 0 64 0 0 -83 0 -83 175 0 c117 -1 175 3 177
10 2 6 4 63 3 126 l0 114 85 42 c85 42 238 144 253 170 4 8 11 14 15 14 4 0 7
-102 7 -227 -1 -126 0 -233 2 -239 3 -8 58 -11 179 -11 l174 1 0 272 0 273 40
-17 c24 -10 40 -24 40 -34 1 -10 1 -124 1 -253 l1 -235 287 0 287 0 -1 253
c-1 138 1 257 3 264 2 6 31 28 65 48 34 20 85 56 112 80 48 43 53 45 113 45
l62 0 0 45 c0 41 -2 45 -25 45 -30 0 -30 1 -5 42 18 31 24 33 87 38 68 5 68 5
69 35 1 49 -5 55 -53 55 l-44 0 18 25 c10 14 36 34 59 45 74 37 156 21 207
-39 32 -39 33 -37 7 23 -69 163 -237 318 -415 385 -172 65 -389 61 -554 -12
-120 -52 -256 -164 -321 -266 -19 -28 -35 -49 -37 -47 -2 1 4 36 12 75 19 92
25 249 12 368 -12 126 6 187 79 260 80 80 189 104 294 64 64 -24 58 -16 -32
46 -198 137 -411 207 -655 217 -51 1 -94 2 -95 1z m1017 -932 c-64 -6 -175
-32 -229 -55 -65 -27 -202 -117 -240 -157 -20 -20 -39 -31 -58 -31 -26 0 -28
-3 -28 -36 0 -23 -11 -55 -28 -83 -33 -55 -66 -130 -81 -188 l-12 -43 -110 0
-110 0 34 43 c20 23 60 82 91 131 l56 89 -6 -89 c-4 -49 -4 -87 -2 -84 3 3 20
39 39 80 18 41 37 80 41 85 60 80 110 135 160 176 95 79 234 141 348 156 25 3
47 7 49 9 2 2 32 3 65 2 44 -1 50 -2 21 -5z m-207 -755 l-3 -52 -55 0 -55 -1
-3 53 -3 52 61 0 61 0 -3 -52z"/>
<path d="M1110 550 l0 -69 113 2 112 2 2 68 2 67 -115 0 -114 0 0 -70z"/>
</g>
</svg>
